<?xml version="1.0" encoding="UTF-8" standalone="no"?>
<svg
   width="1024"
   height="1024"
   viewBox="0 0 1024 1024"
   fill="currentColor"
   class="icon icon-tabler icons-tabler-filled icon-tabler-train"
   version="1.1"
   id="svg2"
   xmlns="http://www.w3.org/2000/svg"
   xmlns:svg="http://www.w3.org/2000/svg">
  <defs
     id="defs2" />
  <path
     d="m 482.82,307.73999 c 193.58013,0 316.69056,90.74981 320.8633,226.26173 l 0.11672,7.17829 a 87.540005,87.540005 0 0 1 -87.54,87.54 H 249.37998 a 29.180002,29.180002 0 0 1 -29.18,-29.18 V 336.91999 a 29.180002,29.180002 0 0 1 29.18,-29.18 z m -116.72001,58.36 h -87.54 V 453.64 h 87.54 z m 116.72001,0 H 424.46 V 453.64 H 512 v -86.78133 a 554.42004,554.42004 0 0 0 -29.18,-0.75868 m 87.56918,7.49926 -0.0292,80.04075 h 147.06721 c -28.5672,-39.01367 -78.465,-67.28909 -147.03801,-80.04075 m 204.23084,313.48076 a 29.180002,29.180002 0 0 1 0,58.36 H 249.37998 a 29.180002,29.180002 0 0 1 0,-58.36 z"
     id="path2"
     style="stroke-width:29.18" />
</svg>
